<?xml version="1.0" encoding="UTF-8" standalone="no"?> <svg xmlns="http://www.w3.org/2000/svg" viewBox="0 0 64 64"><defs><style>.cls-1{fill:#80ee98;}.cls-2{fill:#c8f9cc;}.cls-3{fill:#57cc98;}.cls-4{fill:#18181f;}</style></defs><g id="Budget"><rect class="cls-1" x="3.95" y="11.34" width="56" height="28.26"/><path class="cls-2" d="M8.49,19.78V31.16A4.46,4.46,0,0,1,13,35.62H51a4.46,4.46,0,0,1,4.46-4.46V19.78A4.45,4.45,0,0,1,51,15.32H13a4.45,4.45,0,0,1-4.46,4.46"/><path class="cls-1" d="M32,18.1a7.37,7.37,0,1,1-7.37,7.37A7.38,7.38,0,0,1,32,18.1"/><rect class="cls-2" x="3.95" y="39.6" width="56" height="4.35"/><rect class="cls-1" x="3.95" y="43.95" width="56" height="4.35"/><rect class="cls-2" x="4.05" y="48.29" width="56" height="4.35"/><rect class="cls-3" x="56.21" y="11.34" width="3.83" height="28.26"/><rect class="cls-1" x="56.21" y="39.6" width="3.83" height="4.35"/><rect class="cls-3" x="56.21" y="43.95" width="3.83" height="4.35"/><rect class="cls-1" x="56.22" y="48.29" width="3.83" height="4.35"/><path class="cls-4" d="M60,10.34H4a1,1,0,0,0-1,1V52.66a1,1,0,0,0,1,1H60a1,1,0,0,0,1-1V11.34A1,1,0,0,0,60,10.34ZM59,43H5V40.6H59ZM5,45H59V47.3H5ZM5,12.34H59V38.6H5ZM5,51.66V49.3H59v2.36Z"/><path class="cls-4" d="M55.42,18.78A3.46,3.46,0,0,1,52,15.33a1,1,0,0,0-1-1H13a1,1,0,0,0-1,1,3.46,3.46,0,0,1-3.46,3.45,1,1,0,0,0-1,1V31.16a1,1,0,0,0,1,1A3.46,3.46,0,0,1,12,35.62a1,1,0,0,0,1,1H51a1,1,0,0,0,1-1,3.46,3.46,0,0,1,3.46-3.46,1,1,0,0,0,1-1V19.78A1,1,0,0,0,55.42,18.78Zm-1,11.47a5.49,5.49,0,0,0-4.37,4.37H13.86a5.49,5.49,0,0,0-4.37-4.37V20.69a5.47,5.47,0,0,0,4.37-4.36H50.05a5.47,5.47,0,0,0,4.37,4.36Z"/><path class="cls-4" d="M32,24.48a.59.59,0,0,1-.58-.59A.58.58,0,0,1,32,23.3a.59.59,0,0,1,.42.17,1,1,0,1,0,1.41-1.41A2.59,2.59,0,0,0,33,21.5v-.23a1,1,0,0,0-2,0v.23a2.59,2.59,0,0,0,1,5,.58.58,0,0,1,.59.58.61.61,0,0,1-1,.42,1,1,0,0,0-1.42,0,1,1,0,0,0,0,1.41,2.65,2.65,0,0,0,.83.56v.23a1,1,0,0,0,2,0v-.23a2.58,2.58,0,0,0-1-5Z"/><path class="cls-4" d="M32,17.1a8.37,8.37,0,1,0,8.38,8.37A8.39,8.39,0,0,0,32,17.1Zm0,14.74a6.37,6.37,0,1,1,6.38-6.37A6.37,6.37,0,0,1,32,31.84Z"/><path class="cls-4" d="M20.11,24.34h-2a1,1,0,0,0,0,2h2a1,1,0,0,0,0-2Z"/><path class="cls-4" d="M45.76,24.34h-2a1,1,0,0,0,0,2h2a1,1,0,0,0,0-2Z"/></g></svg>