<?xml version="1.0" encoding="utf-8"?>
<!-- Generator: Adobe Illustrator 25.2.3, SVG Export Plug-In . SVG Version: 6.00 Build 0)  -->
<svg version="1.1" id="Layer_1" xmlns="http://www.w3.org/2000/svg" xmlns:xlink="http://www.w3.org/1999/xlink" x="0px" y="0px"
	 viewBox="0 0 708.66 498.9" style="enable-background:new 0 0 708.66 498.9;" xml:space="preserve">
<style type="text/css">
	.st0{fill:#FFFFFF;}
	.st1{fill:#FEDF58;}
	.st2{font-family:'Belleza-Regular';}
	.st3{font-size:41.4546px;}
	.st4{font-size:21.3337px;}
	.st5{fill:#FBDC65;}
</style>
<path class="st0" d="M322.7,291.78c-0.05-0.16-0.04-0.4-0.15-0.47c-15.32-9.35-16.5-23.34-12.7-38.91
	c4.42-18.1,20.57-44.72,33.55-54.91c1.49,1.8,3.04,3.68,4.98,6.03c-0.96,1.18-2.04,2.57-3.18,3.92
	c-10.33,12.2-18.95,25.35-22.51,41.25c-0.07,0.33-0.17,0.64-0.24,0.97c-4.22,20.94,8.16,33.34,29.03,28.92
	c20.2-4.28,36.08-15.97,50.17-30.29c13.61-13.83,24.61-29.39,28.51-48.94c0.61-3.07,0.77-6.3,0.62-9.44
	c-0.55-11.63-8.15-19.12-19.81-19.59c-14.36-0.58-26.58,5.47-38.15,12.97c-6.12,3.97-11.74,8.71-18.05,13.45
	c-1.7-1.61-3.56-3.37-5.96-5.65c4.24-3.64,7.97-7.12,12-10.23c14.78-11.43,30.57-20.83,49.45-23.69
	c12.99-1.97,24.24,0.62,31.61,12.74c0.22,0.37,0.98,0.41,1.49,0.61c-0.08,1.14-0.45,2.35-0.17,3.4c2.57,9.72,1.13,19.19-1.94,28.47
	c-7.47,22.54-21.42,40.81-38.48,56.85c-15.07,14.17-31.9,25.54-52.02,31.53C341.43,293.57,332.11,293.08,322.7,291.78z"/>
<path class="st0" d="M367.3,209.73c-2.16-2.19-3.88-3.94-6.15-6.24c12.05-10.23,24.12-19.18,40.3-19.33
	c9.71-0.09,15.89,6.05,15.35,15.74c-0.34,6-1.68,12.35-4.24,17.74c-9.31,19.6-23.95,34.42-43.69,43.47
	c-5.97,2.74-13.09,3.81-19.73,4.01c-7.36,0.23-12.27-5.1-13.24-12.47c-0.36-2.76-0.35-5.69,0.14-8.43
	c2.43-13.4,9.76-24.13,19.06-34.62c1.96,2.3,3.62,4.25,4.93,5.78c-2.46,4.35-5.34,8.55-7.29,13.16c-1.71,4.06-3.07,8.51-3.35,12.87
	c-0.4,6.34,3.79,10.17,10.18,10.45c1.32,0.06,2.67-0.08,3.97-0.31c16.32-2.84,36.36-22.63,39.4-38.89
	c2.03-10.84-4.17-17.04-14.86-14.36C380.54,200.2,373.26,203.01,367.3,209.73z"/>
<path class="st0" d="M443.23,170.46c9.25,6.79,11.65,16.48,10.17,27.01c-1.05,7.49-2.75,15.23-5.93,22.03
	c-17,36.46-43.84,63.11-81.28,78.45c-9.62,3.94-19.82,5.97-30.27,3.21c-5.53-1.46-10.67-3.75-13.2-9.51
	c13.04,6.31,26.01,3.53,38.2-1.74c37.22-16.09,64.13-42.99,80.36-80.18C446.78,197.11,448.92,183.86,443.23,170.46z"/>
<text transform="matrix(1.1062 0 0 1 145.3682 361.7404)" class="st1 st2 st3">RNB DIGI-DRIVE CO.</text>
<g>
	<text transform="matrix(1.034 0 0 1 236.8809 392.8615)" class="st1 st2 st4">LEARN! EXCEL! INSPIRE</text>
</g>
<g>
	<path class="st5" d="M308.83,194.56l0.65,2.26c1.06,3.7,3.95,6.58,7.64,7.64l2.26,0.65l-2.26,0.65c-3.7,1.06-6.58,3.95-7.64,7.64
		l-0.65,2.26l-0.65-2.26c-1.06-3.7-3.95-6.58-7.64-7.64l-2.26-0.65l2.26-0.65c3.7-1.06,6.58-3.95,7.64-7.64L308.83,194.56z"/>
	<path class="st5" d="M349.66,150.93l0.71,2.47c1.16,4.04,4.31,7.19,8.35,8.35l2.47,0.71l-2.47,0.71c-4.04,1.16-7.19,4.31-8.35,8.35
		l-0.71,2.47l-0.71-2.47c-1.16-4.04-4.31-7.19-8.35-8.35l-2.47-0.71l2.47-0.71c4.04-1.16,7.19-4.31,8.35-8.35L349.66,150.93z"/>
	<path class="st5" d="M308.18,172.07l0.42,1.47c0.69,2.39,2.55,4.26,4.94,4.94l1.47,0.42l-1.47,0.42c-2.39,0.69-4.26,2.55-4.94,4.94
		l-0.42,1.47l-0.42-1.47c-0.69-2.39-2.55-4.26-4.94-4.94l-1.47-0.42l1.47-0.42c2.39-0.69,4.26-2.55,4.94-4.94L308.18,172.07z"/>
	<path class="st5" d="M280.14,177.84l0.42,1.47c0.69,2.39,2.55,4.26,4.94,4.94l1.47,0.42l-1.47,0.42c-2.39,0.69-4.26,2.55-4.94,4.94
		l-0.42,1.47l-0.42-1.47c-0.69-2.39-2.55-4.26-4.94-4.94l-1.47-0.42l1.47-0.42c2.39-0.69,4.26-2.55,4.94-4.94L280.14,177.84z"/>
	<path class="st5" d="M321.84,131.24l0.37,1.3c0.61,2.13,2.27,3.79,4.4,4.4l1.3,0.37l-1.3,0.37c-2.13,0.61-3.79,2.27-4.4,4.4
		l-0.37,1.3l-0.37-1.3c-0.61-2.13-2.27-3.79-4.4-4.4l-1.3-0.37l1.3-0.37c2.13-0.61,3.79-2.27,4.4-4.4L321.84,131.24z"/>
	<path class="st5" d="M291.58,149.76l0.32,1.11c0.52,1.81,1.93,3.22,3.74,3.74l1.11,0.32l-1.11,0.32c-1.81,0.52-3.22,1.93-3.74,3.74
		l-0.32,1.11l-0.32-1.11c-0.52-1.81-1.93-3.22-3.74-3.74l-1.11-0.32l1.11-0.32c1.81-0.52,3.22-1.93,3.74-3.74L291.58,149.76z"/>
	<path class="st5" d="M269.02,149.99l0.26,0.92c0.43,1.5,1.61,2.68,3.11,3.11l0.92,0.26l-0.92,0.26c-1.5,0.43-2.68,1.61-3.11,3.11
		l-0.26,0.92l-0.26-0.92c-0.43-1.5-1.61-2.68-3.11-3.11l-0.92-0.26l0.92-0.26c1.5-0.43,2.68-1.61,3.11-3.11L269.02,149.99z"/>
</g>
<g>
	<path class="st0" d="M387.58,212.44c-3.2-2.13-6.6-1.21-9.48,1.2c0.73,2.73,1.38,5.2,2.04,7.66c-0.41,0.12-0.82,0.25-1.24,0.37
		c-1.86-4.48-3.73-8.95-5.83-14.02c-1.72,2.39-2.92,4.05-4.3,5.97c-1.5-1.43-2.72-2.53-3.89-3.7
		c-17.21-17.2-34.44-34.38-51.61-51.62c-8.05-8.08-16.02-16.24-24.01-24.37l-19.09-19.09c0,0.02,0,0.04-0.01,0.06
		c-3.55-1.14-4.56,0.32-3.8,3.6l17.97,17.97c0.77,0.56,1.54,1.13,2.21,1.8c22.78,22.71,45.52,45.46,68.31,68.15
		c3.49,3.47,7.25,6.67,11.27,10.34c-2.98,1.96-4.69,3.09-7.04,4.64c5.24,2.17,9.83,4.07,14.42,5.98c-0.16,0.44-0.33,0.88-0.49,1.32
		c-2.58-0.77-5.17-1.54-7.91-2.36c-2.2,3.26-3.4,6.64-1.09,9.85c2.41,3.36,6.05,2.24,9.13,0.89c7.16-3.14,12.41-8.36,15.48-15.56
		C389.97,218.41,391.05,214.75,387.58,212.44z"/>
	<path class="st0" d="M289.06,119.12c-5.42-5.83-11.17-11.35-17.65-17.86c-0.41,4.53-0.73,8.08-1.03,11.46l17.32,17.32
		C289.45,127.15,290.65,120.83,289.06,119.12z"/>
	<path class="st0" d="M252.87,119.82c6.47,6.44,11.94,12.08,17.67,17.46c1.77,1.67,8.32,0.62,11.14-1.16l-17.34-17.34
		C260.93,119.08,257.38,119.41,252.87,119.82z"/>
</g>
</svg>
