<?xml version="1.0" encoding="iso-8859-1"?>
<!-- Generator: Adobe Illustrator 19.0.0, SVG Export Plug-In . SVG Version: 6.00 Build 0)  -->
<svg version="1.1" id="Layer_1" xmlns="http://www.w3.org/2000/svg" xmlns:xlink="http://www.w3.org/1999/xlink" x="0px" y="0px"
	 viewBox="0 0 512 512" style="enable-background:new 0 0 512 512;" xml:space="preserve">
<g transform="translate(1 1)">
	<path style="fill:#FFE100;" d="M452.12,425.24c0-24.747,5.973-47.787,16.213-68.267H185.88H94.573
		c-34.133,0-61.44,30.72-61.44,68.267s27.307,68.267,61.44,68.267h91.307h282.453C458.093,473.027,452.12,449.987,452.12,425.24"/>
	<path style="fill:#FFFFFF;" d="M33.133,425.24c0-37.547,27.307-68.267,61.44-68.267H75.8c-37.547,0-68.267,30.72-68.267,68.267
		s30.72,68.267,68.267,68.267h18.773C60.44,493.507,33.133,462.787,33.133,425.24"/>
	<path style="fill:#FFA800;" d="M493.933,356.973h-25.6c-10.24,20.48-16.213,43.52-16.213,68.267s5.973,47.787,16.213,68.267h25.6
		c-11.947-20.48-18.773-43.52-18.773-68.267S481.987,377.453,493.933,356.973"/>
	<polygon style="fill:#FFE100;" points="33.133,356.973 476.867,356.973 476.867,271.64 33.133,271.64 	"/>
	<polygon style="fill:#FFFFFF;" points="7.533,356.973 33.133,356.973 33.133,271.64 7.533,271.64 	"/>
	<polygon style="fill:#FFA800;" points="476.867,356.973 502.467,356.973 502.467,271.64 476.867,271.64 	"/>
	<g>
		<polygon style="fill:#63D3FD;" points="75.8,356.973 127,356.973 127,271.64 75.8,271.64 		"/>
		<polygon style="fill:#63D3FD;" points="417.133,356.973 451.267,356.973 451.267,271.64 417.133,271.64 		"/>
	</g>
	<path style="fill:#FFE100;" d="M340.333,135.107c0,61.44-38.4,136.533-85.333,136.533s-85.333-75.093-85.333-136.533H340.333z"/>
	<path style="fill:#FFFFFF;" d="M169.667,135.107h-25.6c0,61.44,49.493,136.533,110.933,136.533
		C208.067,271.64,169.667,196.547,169.667,135.107"/>
	<path style="fill:#FFA800;" d="M340.333,135.107c0,61.44-38.4,136.533-85.333,136.533c61.44,0,110.933-75.093,110.933-136.533
		H340.333z"/>
	<g>
		<path style="fill:#FFE100;" d="M263.533,92.44c-2.56,0-4.267-0.853-5.973-2.56c-7.68-8.533-11.093-16.213-11.093-24.747
			c0-7.68,4.267-15.36,11.093-21.333c2.56-2.56,5.973-6.827,5.973-11.093c0-3.413-1.707-6.827-5.973-10.24
			c-3.413-3.413-3.413-8.533,0-11.947c3.413-3.413,8.533-3.413,11.947,0c6.827,5.973,11.093,13.653,11.093,21.333
			c0,8.533-3.413,16.213-11.093,23.893c-4.267,3.413-5.973,6.827-5.973,10.24c0,4.267,3.413,9.387,5.973,11.947
			c3.413,3.413,3.413,8.533-0.853,11.947C267.8,91.587,266.093,92.44,263.533,92.44z"/>
		<path style="fill:#FFE100;" d="M323.267,92.44c-2.56,0-4.267-0.853-5.973-2.56c-7.68-8.533-11.093-16.213-11.093-24.747
			c0-7.68,4.267-15.36,11.093-21.333c2.56-2.56,5.973-6.827,5.973-11.093c0-3.413-1.707-6.827-5.973-10.24
			c-3.413-3.413-3.413-8.533,0-11.947c3.413-3.413,8.533-3.413,11.947,0c6.827,5.973,11.093,13.653,11.093,21.333
			c0,8.533-3.413,16.213-11.093,23.893c-4.267,3.413-5.973,6.827-5.973,10.24c0,4.267,3.413,9.387,5.973,11.947
			c3.413,3.413,3.413,8.533-0.853,11.947C327.533,91.587,325.827,92.44,323.267,92.44z"/>
		<path style="fill:#FFE100;" d="M203.8,92.44c-2.56,0-4.267-0.853-5.973-2.56c-7.68-8.533-11.093-16.213-11.093-24.747
			c0-7.68,4.267-15.36,11.093-21.333c2.56-2.56,5.973-6.827,5.973-11.093c0-3.413-1.707-6.827-5.973-10.24
			c-3.413-3.413-3.413-8.533,0-11.947s8.533-3.413,11.947,0c6.827,5.973,11.093,13.653,11.093,21.333
			c0,8.533-3.413,16.213-11.093,23.893c-4.267,3.413-5.973,6.827-5.973,10.24c0,4.267,3.413,9.387,5.973,11.947
			c3.413,3.413,3.413,8.533-0.853,11.947C208.067,91.587,206.36,92.44,203.8,92.44z"/>
		<path style="fill:#FFE100;" d="M357.4,237.507c-5.973,0-11.947-0.853-17.92-3.413c-2.56-0.853-4.267-3.413-5.12-5.973
			s0-5.12,1.707-7.68c16.213-22.187,27.307-49.493,29.867-75.093c0-2.56,1.707-5.12,4.267-6.827s5.12-1.707,7.68-0.853
			c18.773,7.68,31.573,26.453,31.573,46.933C408.6,214.467,385.56,237.507,357.4,237.507z M356.547,220.44
			c18.773,0.853,34.987-15.36,34.987-34.133c0-9.387-4.267-18.773-11.093-25.6C376.173,181.187,368.493,202.52,356.547,220.44z"/>
	</g>
	<path d="M493.933,502.04H220.867c-5.12,0-8.533-3.413-8.533-8.533c0-5.12,3.413-8.533,8.533-8.533H480.28
		c-8.533-18.773-12.8-39.253-12.8-59.733s4.267-40.96,12.8-59.733H75.8c-33.28,0-59.733,26.453-59.733,59.733
		S42.52,484.973,75.8,484.973h76.8c5.12,0,8.533,3.413,8.533,8.533c0,5.12-3.413,8.533-8.533,8.533H75.8
		c-42.667,0-76.8-34.133-76.8-76.8s34.133-76.8,76.8-76.8h418.133c3.413,0,5.973,1.707,7.68,4.267s1.707,5.973,0,8.533
		c-11.093,19.627-17.067,41.813-17.067,64s5.973,44.373,17.067,64c1.707,2.56,1.707,5.973,0,8.533
		C499.907,500.333,497.347,502.04,493.933,502.04z"/>
	<path d="M195.267,493.507c0-5.12-3.413-8.533-8.533-8.533c-5.12,0-8.533,3.413-8.533,8.533c0,5.12,3.413,8.533,8.533,8.533
		C191.853,502.04,195.267,498.627,195.267,493.507"/>
	<path d="M434.2,433.773h-256c-5.12,0-8.533-3.413-8.533-8.533s3.413-8.533,8.533-8.533h256c5.12,0,8.533,3.413,8.533,8.533
		S439.32,433.773,434.2,433.773z"/>
	<path d="M186.733,467.907H75.8c-23.893,0-42.667-18.773-42.667-42.667s18.773-42.667,42.667-42.667h196.267
		c5.12,0,8.533,3.413,8.533,8.533s-3.413,8.533-8.533,8.533H75.8c-14.507,0-25.6,11.093-25.6,25.6s11.093,25.6,25.6,25.6h110.933
		c5.12,0,8.533,3.413,8.533,8.533S191.853,467.907,186.733,467.907z"/>
	<path d="M434.2,399.64H314.733c-5.12,0-8.533-3.413-8.533-8.533s3.413-8.533,8.533-8.533H434.2c5.12,0,8.533,3.413,8.533,8.533
		S439.32,399.64,434.2,399.64z"/>
	<path d="M314.733,467.907H229.4c-5.12,0-8.533-3.413-8.533-8.533s3.413-8.533,8.533-8.533h85.333c5.12,0,8.533,3.413,8.533,8.533
		S319.853,467.907,314.733,467.907z"/>
	<path d="M434.2,467.907h-76.8c-5.12,0-8.533-3.413-8.533-8.533s3.413-8.533,8.533-8.533h76.8c5.12,0,8.533,3.413,8.533,8.533
		S439.32,467.907,434.2,467.907z"/>
	<path d="M135.533,433.773h-51.2c-5.12,0-8.533-3.413-8.533-8.533s3.413-8.533,8.533-8.533h51.2c5.12,0,8.533,3.413,8.533,8.533
		S140.653,433.773,135.533,433.773z"/>
	<path d="M255,280.173c-66.56,0-119.467-79.36-119.467-145.067c0-5.12,3.413-8.533,8.533-8.533h221.867
		c5.12,0,8.533,3.413,8.533,8.533C374.467,200.813,321.56,280.173,255,280.173z M152.6,143.64
		c4.267,55.467,49.493,119.467,102.4,119.467s98.133-64,102.4-119.467H152.6z"/>
	<path d="M255,246.04c-31.573,0-57.173-29.013-70.827-55.467c-1.707-4.267-0.853-9.387,3.413-11.093
		c4.267-1.707,9.387-0.853,11.093,3.413c14.507,28.16,35.84,46.933,55.467,46.933c5.12,0,8.533,3.413,8.533,8.533
		S260.12,246.04,255,246.04z"/>
	<path d="M348.867,237.507c-5.973,0-11.947-0.853-17.92-3.413c-2.56-0.853-4.267-3.413-5.12-5.973c-0.853-2.56,0-5.12,1.707-7.68
		c16.213-22.187,27.307-49.493,29.867-75.093c0-2.56,1.707-5.12,4.267-6.827s5.12-1.707,7.68-0.853
		c18.773,7.68,31.573,26.453,31.573,46.933C400.067,214.467,377.027,237.507,348.867,237.507z M348.013,220.44
		C366.787,221.293,383,205.08,383,186.307c0-9.387-4.267-18.773-11.093-25.6C367.64,181.187,359.96,202.52,348.013,220.44z"/>
	<path d="M502.467,365.507H7.533c-5.12,0-8.533-3.413-8.533-8.533V271.64c0-5.12,3.413-8.533,8.533-8.533h494.933
		c5.12,0,8.533,3.413,8.533,8.533v85.333C511,362.093,507.587,365.507,502.467,365.507z M16.067,348.44h477.867v-68.267H16.067
		V348.44z"/>
	<path d="M127,365.507H75.8c-5.12,0-8.533-3.413-8.533-8.533V271.64c0-5.12,3.413-8.533,8.533-8.533H127
		c5.12,0,8.533,3.413,8.533,8.533v85.333C135.533,362.093,132.12,365.507,127,365.507z M84.333,348.44h34.133v-68.267H84.333V348.44
		z"/>
	<path d="M348.867,322.84H186.733c-5.12,0-8.533-3.413-8.533-8.533c0-5.12,3.413-8.533,8.533-8.533h162.133
		c5.12,0,8.533,3.413,8.533,8.533C357.4,319.427,353.987,322.84,348.867,322.84z"/>
	<path d="M451.267,365.507h-34.133c-5.12,0-8.533-3.413-8.533-8.533V271.64c0-5.12,3.413-8.533,8.533-8.533h34.133
		c5.12,0,8.533,3.413,8.533,8.533v85.333C459.8,362.093,456.387,365.507,451.267,365.507z M425.667,348.44h17.067v-68.267h-17.067
		V348.44z"/>
	<path d="M255,92.44c-2.56,0-4.267-0.853-5.973-2.56c-7.68-8.533-11.093-16.213-11.093-24.747c0-7.68,4.267-15.36,11.093-21.333
		c2.56-2.56,5.973-6.827,5.973-11.093c0-3.413-1.707-6.827-5.973-10.24c-3.413-3.413-3.413-8.533,0-11.947s8.533-3.413,11.947,0
		c6.827,5.973,11.093,13.653,11.093,21.333c0,8.533-3.413,16.213-11.093,23.893C257.56,59.16,255,62.573,255,65.987
		c0,4.267,3.413,9.387,5.973,11.947c3.413,3.413,3.413,8.533-0.853,11.947C259.267,91.587,256.707,92.44,255,92.44z"/>
	<path d="M314.733,92.44c-2.56,0-4.267-0.853-5.973-2.56c-7.68-8.533-11.093-16.213-11.093-24.747c0-7.68,4.267-15.36,11.093-21.333
		c2.56-2.56,5.973-6.827,5.973-11.093c0-3.413-1.707-6.827-5.973-10.24c-3.413-3.413-3.413-8.533,0-11.947s8.533-3.413,11.947,0
		c6.827,5.973,11.093,13.653,11.093,21.333c0,8.533-3.413,16.213-11.093,23.893c-3.413,3.413-5.973,6.827-5.973,10.24
		c0,4.267,3.413,9.387,5.973,11.947c3.413,3.413,3.413,8.533-0.853,11.947C319,91.587,316.44,92.44,314.733,92.44z"/>
	<path d="M195.267,92.44c-2.56,0-4.267-0.853-5.973-2.56c-7.68-8.533-11.093-16.213-11.093-24.747c0-7.68,4.267-15.36,11.093-21.333
		c2.56-2.56,5.973-6.827,5.973-11.093c0-3.413-1.707-6.827-5.973-10.24c-3.413-3.413-3.413-8.533,0-11.947s8.533-3.413,11.947,0
		c6.827,5.973,11.093,13.653,11.093,21.333c0,8.533-3.413,16.213-11.093,23.893c-3.413,3.413-5.973,6.827-5.973,10.24
		c0,4.267,3.413,9.387,5.973,11.947c3.413,3.413,3.413,8.533-0.853,11.947C199.533,91.587,196.973,92.44,195.267,92.44z"/>
</g>
<g>
</g>
<g>
</g>
<g>
</g>
<g>
</g>
<g>
</g>
<g>
</g>
<g>
</g>
<g>
</g>
<g>
</g>
<g>
</g>
<g>
</g>
<g>
</g>
<g>
</g>
<g>
</g>
<g>
</g>
</svg>
