<?xml version="1.0" encoding="UTF-8" standalone="no"?> <svg xmlns="http://www.w3.org/2000/svg" data-name="Layer 1" viewBox="0 0 32 32"><circle cx="16" cy="16" r="12.5" fill="#fdd402" transform="rotate(-13.173 16 16)"/><path fill="#fff" d="M26.5,16.06c0,.13,0,.27-.01.4a10.38723,10.38723,0,0,1-2.66,6.58,7.77593,7.77593,0,0,1-.69.72,10.47606,10.47606,0,0,1-6.64,2.79c-.17.01-.33.01-.5.01s-.33,0-.5-.01a10.47825,10.47825,0,0,1-6.56-2.72H8.93a9.36787,9.36787,0,0,1-.7-.71,10.45237,10.45237,0,0,1-2.72-6.66c-.01-.13-.01-.27-.01-.4,0-.2.01-.4.01-.6A10.582,10.582,0,0,1,8.3,8.92a9.35908,9.35908,0,0,1,.72-.69A10.43912,10.43912,0,0,1,15.5,5.57c.17-.01.33-.01.5-.01s.33,0,.5.01a10.47852,10.47852,0,0,1,6.56,2.72,9.51468,9.51468,0,0,1,.71.71,10.53432,10.53432,0,0,1,2.72,6.46v.06C26.5,15.7,26.5,15.88,26.5,16.06Z"/><path fill="#e0e0e2" d="M9.93,23.83a9.36787,9.36787,0,0,1-.7-.71,10.45237,10.45237,0,0,1-2.72-6.66c-.01-.13-.01-.27-.01-.4,0-.2.01-.4.01-.6A10.582,10.582,0,0,1,9.3,8.92a9.35908,9.35908,0,0,1,.72-.69A10.43912,10.43912,0,0,1,16.5,5.57c-.17-.01-.33-.01-.5-.01s-.33,0-.5.01A10.43912,10.43912,0,0,0,9.02,8.23a9.35908,9.35908,0,0,0-.72.69,10.582,10.582,0,0,0-2.79,6.54c0,.2-.01.4-.01.6,0,.13,0,.27.01.4a10.45237,10.45237,0,0,0,2.72,6.66,9.36787,9.36787,0,0,0,.7.71h.01a10.47825,10.47825,0,0,0,6.56,2.72c.17.01.33.01.5.01s.33,0,.5-.01a10.47825,10.47825,0,0,1-6.56-2.72Z"/><path fill="#3c3b41" d="M16.5 4.57V7.5a.5.5 0 0 1-1 0V4.57c.17-.01.33-.01.5-.01S16.33 4.56 16.5 4.57zM16.5 24.5v3.05c-.17.01-.33.01-.5.01s-.33 0-.5-.01V24.5a.5.5 0 0 1 1 0zM27.49 16.46H24.46a.50145.50145 0 0 1-.5-.5.49514.49514 0 0 1 .5-.5h3.03zM7.96 15.96a.5081.5081 0 0 1-.5.5H4.51c-.01-.13-.01-.27-.01-.4 0-.2.01-.4.01-.6H7.46A.5015.5015 0 0 1 7.96 15.96zM24.77 8L22.4 10.36a.48329.48329 0 0 1-.7 0 .49509.49509 0 0 1 0-.71l2.36-2.36A9.51468 9.51468 0 0 1 24.77 8zM10.38 22.38L7.94 24.83H7.93a9.36787 9.36787 0 0 1-.7-.71l2.45-2.45a.50108.50108 0 0 1 .7 0A.49506.49506 0 0 1 10.38 22.38zM24.83 24.04a7.77593 7.77593 0 0 1-.69.72L21.7 22.32a.49509.49509 0 0 1 0-.71.50108.50108 0 0 1 .7 0zM10.38 10.3a.50748.50748 0 0 1-.7 0L7.3 7.92a9.35908 9.35908 0 0 1 .72-.69l2.36 2.36A.49509.49509 0 0 1 10.38 10.3zM16.00537 14.9292a.49992.49992 0 0 1-.5-.498l-.01123-3.0127a.5.5 0 0 1 .498-.502h.00146a.5.5 0 0 1 .50049.498l.01123 3.0127a.5.5 0 0 1-.498.502zM19.541 18.917a.50183.50183 0 0 1-.30078-.10059l-2.91895-2.20557a.49991.49991 0 1 1 .60254-.79785l2.91895 2.20459a.5001.5001 0 0 1-.30176.89941z"/><circle cx="16" cy="16" r="1.5" fill="#fdd402"/><path fill="#37b678" d="M16 32a.5.5 0 0 1 0-1A15 15 0 0 0 16 1a.5.5 0 0 1 0-1 16 16 0 0 1 0 32zM12.98779 31.707a.4955.4955 0 0 1-.09961-.00977l-.25146-.05176a.50045.50045 0 0 1-.3833-.59473.50891.50891 0 0 1 .59424-.38379l.23877.0498a.50006.50006 0 0 1-.09863.99023zm-2.16992-.59473a.51558.51558 0 0 1-.16943-.0293l-.2417-.08887a.49971.49971 0 1 1 .35156-.93555l.229.083a.50016.50016 0 0 1-.16943.9707zM8.7583 30.209a.48968.48968 0 0 1-.2334-.05859l-.18652-.10059a.51908.51908 0 0 1-.22021-.68848.482.482 0 0 1 .65869-.21094l.21582.11719a.49965.49965 0 0 1-.23437.94141zM6.85254 29.01465a.50334.50334 0 0 1-.293-.09473l-.21191-.1582a.50033.50033 0 0 1 .61035-.793l.18848.14063a.50039.50039 0 0 1-.29395.90527zM5.13965 27.55859a.49853.49853 0 0 1-.35059-.14355l-.18115-.17969a.50029.50029 0 1 1 .71-.70508l.17236.17188a.5.5 0 0 1-.35059.85645zM3.65479 25.873a.49861.49861 0 0 1-.39893-.19824l-.15234-.20312a.49981.49981 0 1 1 .80273-.5957l.14648.19531a.5.5 0 0 1-.39795.80176zM2.42773 23.99023a.49981.49981 0 0 1-.438-.25781l-.12158-.22363a.49986.49986 0 1 1 .87988-.47461l.1167.21387a.5.5 0 0 1-.437.74219zm-.94141-2.03809a.50013.50013 0 0 1-.46729-.32227l-.09033-.24609a.50018.50018 0 0 1 .94434-.33008l.08057.2207a.50062.50062 0 0 1-.28955.64551A.51625.51625 0 0 1 1.48633 21.95215zm-.63525-2.1543a.50039.50039 0 0 1-.48828-.39355l-.05273-.25488a.50016.50016 0 0 1 .98145-.19336l.04883.23535a.50168.50168 0 0 1-.48926.60645zM.53613 17.57227a.4996.4996 0 0 1-.498-.46484L.022 16.84912a.50021.50021 0 0 1 .999-.05273l.01416.24072a.50013.50013 0 0 1-.46338.53418C.56006 17.57227.54785 17.57227.53613 17.57227zm.0083-2.248l-.03857-.00146a.49992.49992 0 0 1-.46045-.53662l.021-.25488a.5.5 0 1 1 .99609.08789l-.02.24316A.50021.50021 0 0 1 .54443 15.32422zM.874 13.10107a.515.515 0 0 1-.1084-.01172.50011.50011 0 0 1-.38037-.59619l.05859-.25293a.50025.50025 0 1 1 .97266.23438l-.05469.23486A.50022.50022 0 0 1 .874 13.10107zm.6499-2.15283A.49984.49984 0 0 1 1.05664 10.27l.09521-.2417a.5.5 0 0 1 .92773.373l-.08838.2251A.50063.50063 0 0 1 1.52393 10.94824zM2.48 8.91309a.5.5 0 0 1-.43506-.74561l.12793-.22266a.49972.49972 0 1 1 .86426.502L2.916 8.65869A.49913.49913 0 0 1 2.48 8.91309zm1.2417-1.87451a.5.5 0 0 1-.39551-.80518l.15967-.20361a.49994.49994 0 0 1 .78125.624l-.14893.18994A.499.499 0 0 1 3.72168 7.03857zM5.22021 5.3623a.5.5 0 0 1-.34766-.85937l.187-.17822a.50022.50022 0 1 1 .68359.73047l-.17529.1665A.49968.49968 0 0 1 5.22021 5.3623zM6.94385 3.91992a.5.5 0 0 1-.29395-.90479l.21436-.15186a.5.5 0 1 1 .56641.82422l-.19385.13721A.49706.49706 0 0 1 6.94385 3.91992zM8.856 2.74121a.5.5 0 0 1-.23242-.94287L8.854 1.68066a.50006.50006 0 1 1 .44727.89453l-.21387.10889A.49462.49462 0 0 1 8.856 2.74121zm2.06152-.88867a.49995.49995 0 0 1-.16406-.97217l.24561-.083a.49983.49983 0 0 1 .31055.9502l-.228.07715A.493.493 0 0 1 10.91748 1.85254zm2.1709-.57959a.50007.50007 0 0 1-.09375-.99121L13.249.23584a.49995.49995 0 1 1 .16992.98535l-.23584.043A.52216.52216 0 0 1 13.08838 1.27295z"/><path fill="#fdd402" d="M28.17,13.15a12.49924,12.49924,0,1,0-9.32,15.02A12.5021,12.5021,0,0,0,28.17,13.15Zm-1.68,3.31a10.38723,10.38723,0,0,1-2.66,6.58,7.77593,7.77593,0,0,1-.69.72,10.47606,10.47606,0,0,1-6.64,2.79c-.17.01-.33.01-.5.01s-.33,0-.5-.01a10.47825,10.47825,0,0,1-6.56-2.72H8.93a9.36787,9.36787,0,0,1-.7-.71,10.45237,10.45237,0,0,1-2.72-6.66c-.01-.13-.01-.27-.01-.4,0-.2.01-.4.01-.6A10.582,10.582,0,0,1,8.3,8.92a9.35908,9.35908,0,0,1,.72-.69A10.43912,10.43912,0,0,1,15.5,5.57c.17-.01.33-.01.5-.01s.33,0,.5.01a10.47852,10.47852,0,0,1,6.56,2.72,9.51468,9.51468,0,0,1,.71.71,10.53432,10.53432,0,0,1,2.72,6.46v.06c.01.18005.01.36.01.54C26.5,16.19,26.5,16.33,26.49,16.46Z"/><path fill="#fbbf13" d="M4.83,18.85A12.4598,12.4598,0,0,1,16.44141,3.52118a12.48933,12.48933,0,1,0,.11719,24.95758A12.49211,12.49211,0,0,1,4.83,18.85Z"/><path fill="#fbbf13" d="M23.83,23.04a7.77593,7.77593,0,0,1-.69.72,10.47606,10.47606,0,0,1-6.64,2.79c.17.01.33.01.5.01s.33,0,.5-.01a10.47606,10.47606,0,0,0,6.64-2.79,7.77593,7.77593,0,0,0,.69-.72,10.38723,10.38723,0,0,0,2.66-6.58c.01-.13.01-.27.01-.4,0-.18,0-.36-.01-.54v-.06A10.53432,10.53432,0,0,0,24.77,9a9.51468,9.51468,0,0,0-.71-.71A10.47852,10.47852,0,0,0,17.5,5.57c-.17-.01-.33-.01-.5-.01s-.33,0-.5.01a10.47852,10.47852,0,0,1,6.56,2.72,9.51468,9.51468,0,0,1,.71.71,10.53432,10.53432,0,0,1,2.72,6.46v.06c.01.18005.01.36.01.54,0,.13,0,.27-.01.4A10.38723,10.38723,0,0,1,23.83,23.04Z"/></svg>