<?xml version="1.0" standalone="no"?><svg xmlns="http://www.w3.org/2000/svg" viewBox="0 0 1440 320"><path fill="#2e186a" fill-opacity="1" d="M0,0L40,26.7C80,53,160,107,240,149.3C320,192,400,224,480,218.7C560,213,640,171,720,154.7C800,139,880,149,960,170.7C1040,192,1120,224,1200,218.7C1280,213,1360,171,1400,149.3L1440,128L1440,320L1400,320C1360,320,1280,320,1200,320C1120,320,1040,320,960,320C880,320,800,320,720,320C640,320,560,320,480,320C400,320,320,320,240,320C160,320,80,320,40,320L0,320Z"></path></svg>