<?xml version="1.0" standalone="no"?><svg xmlns="http://www.w3.org/2000/svg" preserveAspectRatio="none" viewBox="0 0 1440 320"><path fill="#cd9a2b" fill-opacity="1" d="M0,256L24,261.3C48,267,96,277,144,250.7C192,224,240,160,288,128C336,96,384,96,432,122.7C480,149,528,203,576,208C624,213,672,171,720,138.7C768,107,816,85,864,106.7C912,128,960,192,1008,197.3C1056,203,1104,149,1152,133.3C1200,117,1248,139,1296,128C1344,117,1392,75,1416,53.3L1440,32L1440,0L1416,0C1392,0,1344,0,1296,0C1248,0,1200,0,1152,0C1104,0,1056,0,1008,0C960,0,912,0,864,0C816,0,768,0,720,0C672,0,624,0,576,0C528,0,480,0,432,0C384,0,336,0,288,0C240,0,192,0,144,0C96,0,48,0,24,0L0,0Z"></path></svg>